<svg width="250" height="90" viewBox="0 0 250 90" fill="none" xmlns="http://www.w3.org/2000/svg">
<g clip-path="url(#clip0_1_78)">
<path fill-rule="evenodd" clip-rule="evenodd" d="M123.122 42.1364C126.056 42.1724 128.968 41.661 131.696 40.6309C134.249 39.6708 136.579 38.242 138.555 36.4255C140.484 34.6116 142.012 32.4471 143.048 30.06C143.838 28.2807 144.353 26.4009 144.574 24.48C144.734 22.5912 144.763 20.6943 144.66 18.8018H123.225L119.401 26.1328H134.629C134.07 28.4286 132.649 30.449 130.633 31.8109C128.457 33.2778 125.837 34.0248 123.174 33.9382C121.402 33.9429 119.649 33.5916 118.029 32.9072C114.832 31.5816 112.312 29.1062 111.016 26.0182C110.328 24.4261 109.99 22.7164 110.021 20.9946C110.015 19.2755 110.371 17.5728 111.067 15.9873C112.056 13.6706 113.752 11.6915 115.936 10.3081C118.12 8.92459 120.69 8.20081 123.311 8.23095C125.657 8.21325 127.967 8.7771 130.016 9.86732C131.96 10.9214 133.531 12.5054 134.526 14.4164L142.997 10.62C141.252 7.35299 138.531 4.65358 135.177 2.86363C131.581 0.959164 127.526 -0.0166006 123.414 0.0327533C118.991 -0.0217064 114.647 1.15899 110.918 3.42963C107.189 5.70027 104.237 8.96178 102.425 12.8128C101.201 15.3823 100.57 18.1723 100.573 20.9946C100.536 23.8065 101.12 26.5944 102.288 29.1764C103.423 31.6864 105.046 33.9684 107.072 35.9018C109.117 37.8579 111.547 39.4093 114.223 40.4672C117.041 41.5896 120.068 42.1573 123.122 42.1364ZM81.8643 89.9836C84.796 90.0178 87.7072 89.5122 90.4383 88.4946C92.993 87.5383 95.3242 86.109 97.2975 84.2891C99.2275 82.4731 100.76 80.3094 101.807 77.9236C102.588 76.1422 103.096 74.263 103.316 72.3437C103.465 70.4481 103.465 68.5446 103.316 66.6491H81.9501L78.1261 74.0618H93.4735C92.9013 76.3517 91.4749 78.3643 89.4609 79.7237C87.2864 81.1963 84.6666 81.9492 82.0015 81.8673C80.2308 81.8644 78.4796 81.5135 76.8571 80.8364C74.4451 79.8191 72.3998 78.1474 70.9759 76.0292C69.552 73.911 68.8124 71.4399 68.8491 68.9236C68.8513 67.2 69.2066 65.4935 69.8951 63.9C70.5683 62.3798 71.5404 60.9967 72.7588 59.8254C73.9656 58.6777 75.3918 57.7612 76.96 57.1255C78.5858 56.4659 80.3379 56.1371 82.1044 56.16C84.4454 56.1368 86.7517 56.7011 88.7922 57.7964C90.7359 58.8438 92.3067 60.4225 93.3021 62.3291L101.773 58.5491C100.029 55.2821 97.3072 52.5827 93.9537 50.7928C90.3532 48.86 86.2869 47.856 82.1559 47.88C77.7298 47.8227 73.3831 49.0042 69.6529 51.2784C65.9227 53.5526 62.9724 56.8198 61.1667 60.6764C59.9403 63.2449 59.3087 66.0356 59.3148 68.8582C59.2888 71.6692 59.8726 74.4549 61.0296 77.04C62.1715 79.5466 63.7941 81.8275 65.8139 83.7655C67.8709 85.704 70.2982 87.2483 72.9645 88.3146C75.7844 89.4331 78.8106 90.0006 81.8643 89.9836ZM175.664 48.5673V89.28H166.232L145.878 62.82V89.28H136.858V52.3636L134.8 48.5673H146.461L166.627 75.3873V48.5673H175.664ZM0 48.5673H11.4892V81.2945H28.7572L26.3736 89.2636H0L2.17782 85.0581V52.7891L0 48.5673ZM31.9466 89.2964H57.6686V81.3437H41.3095V72.4255H53.9475L56.2453 64.7673H41.3095V56.5855H57.6686V48.6491H31.9466V89.2964ZM132.365 89.2964H106.643V48.5509H132.365V56.4873H116.023V64.6691H130.942L128.661 72.4255H116.023V81.3601H132.365V89.2964ZM0 0.719998H11.4892V33.4473H28.7572L26.3736 41.4164H0L2.17782 37.2109V4.90909L0 0.719998ZM31.9466 41.4491H57.6686V33.48H41.3095V24.5455H53.9475L56.2453 16.8873H41.3095V8.70546H57.6686V0.769137H31.9466V41.4491ZM212.652 41.4491H186.93V0.703618H212.652V8.60728H196.361V16.7891H211.28L208.999 24.4473H196.361V33.3819H212.703L212.652 41.4491ZM86.46 0.719998H73.1703L75.9826 5.90724L60.6351 41.4491H70.1866L73.4447 33.5127H90.7299L94.1595 41.4491H103.762L86.46 0.719998ZM76.6342 25.7237L82.2588 12.0273L87.6432 25.7237H76.6342ZM237.07 30.24V11.88H248.954V16.0363H241.889V20.0618H248.062L246.862 24.0873H241.889V30.2891L237.07 30.24ZM225.17 11.5527C223.204 11.5882 221.294 12.1767 219.678 13.2445C218.061 14.3123 216.811 15.8118 216.085 17.5548C215.358 19.2979 215.188 21.2068 215.594 23.0422C216 24.8776 216.965 26.5577 218.368 27.8716C219.771 29.1856 221.549 30.0749 223.48 30.428C225.41 30.7812 227.407 30.5824 229.22 29.8565C231.033 29.1307 232.58 27.9102 233.669 26.3482C234.757 24.7862 235.338 22.9522 235.339 21.0764C235.327 19.8128 235.055 18.5637 234.538 17.4004C234.021 16.2372 233.269 15.1825 232.325 14.2966C231.38 13.4107 230.263 12.711 229.035 12.2374C227.807 11.7638 226.494 11.5255 225.17 11.5363V11.5527ZM225.17 26.1818C224.115 26.1657 223.09 25.8526 222.221 25.2819C221.353 24.7112 220.68 23.9083 220.288 22.9741C219.897 22.0399 219.803 21.0161 220.019 20.0312C220.235 19.0463 220.751 18.1442 221.503 17.4384C222.254 16.7325 223.207 16.2544 224.243 16.0639C225.278 15.8734 226.35 15.9792 227.322 16.3679C228.295 16.7566 229.125 17.4109 229.71 18.2486C230.294 19.0863 230.606 20.0701 230.606 21.0764C230.588 22.4377 230.006 23.737 228.987 24.6905C227.969 25.6439 226.597 26.1742 225.17 26.1654V26.1818ZM158.07 40.9091C162.82 42.5021 167.998 42.5021 172.748 40.9091C174.811 40.1778 176.679 39.0212 178.219 37.5218C179.743 35.9877 180.911 34.1646 181.648 32.171C182.482 29.9342 182.895 27.5741 182.866 25.2V0.654579H173.4V24.7091C173.553 27.0527 172.83 29.3721 171.359 31.2546C170.58 32.0206 169.647 32.6295 168.616 33.0453C167.585 33.4611 166.477 33.6753 165.358 33.6753C164.239 33.6753 163.131 33.4611 162.1 33.0453C161.069 32.6295 160.136 32.0206 159.356 31.2546C157.879 29.3744 157.15 27.0547 157.298 24.7091V0.654579H147.85V25.2C147.815 27.5731 148.222 29.9332 149.05 32.171C149.79 34.1581 150.959 35.9752 152.48 37.5054C154.042 39.0448 155.955 40.2206 158.07 40.9418V40.9091ZM237.739 65.0946L231.858 64.0473C229.217 63.5727 227.759 62.1818 227.759 60.1364C227.759 57.3545 230.811 55.6855 233.778 55.6855C234.773 55.6855 239.797 55.931 240.826 60.5946L248.92 56.8964C247.737 53.6237 244.153 47.8146 233.71 47.8146C225.29 47.8146 218.448 53.591 218.448 60.6928C218.448 66.7146 222.752 71.1327 229.971 72.5073L235.853 73.62C238.768 74.16 240.5 75.6982 240.5 77.7437C240.5 80.3946 238.099 81.9982 234.241 82.0309C232.201 82.0849 230.202 81.4836 228.563 80.3233C226.924 79.1631 225.741 77.5113 225.204 75.6328L217.419 79.6909C219.134 85.1237 224.707 89.9672 234.19 89.9672C238.481 90.1369 242.673 88.7115 245.885 85.9909C247.161 84.8811 248.185 83.5329 248.893 82.0297C249.601 80.5266 249.978 78.9006 250 77.2528C249.983 71.1491 245.302 66.5018 237.739 65.1272V65.0946ZM210.08 54.54C212.086 56.3747 213.7 58.5645 214.83 60.9873C215.978 63.5156 216.57 66.2418 216.57 68.9973C216.57 71.7528 215.978 74.479 214.83 77.0073C213.71 79.4308 212.095 81.617 210.08 83.4382C208.033 85.2763 205.642 86.7307 203.032 87.7254C200.306 88.7671 197.394 89.295 194.458 89.28H179.745V48.5509H194.475C197.407 48.6512 200.302 49.2038 203.049 50.1872C205.657 51.2055 208.042 52.682 210.08 54.54ZM203.22 77.5801C204.37 76.4829 205.285 75.1822 205.913 73.7509C206.575 72.2486 206.916 70.6352 206.916 69.0054C206.916 67.3757 206.575 65.7623 205.913 64.26C205.289 62.8123 204.371 61.497 203.212 60.3903C202.052 59.2836 200.673 58.4075 199.156 57.8128C197.561 57.1738 195.845 56.8509 194.115 56.8636H188.97V81.1146H194.115C195.847 81.1217 197.562 80.7932 199.156 80.1491C200.699 79.5534 202.107 78.6814 203.306 77.5801H203.22Z" fill="#F1F0F0"/>
</g>
<defs>
<clipPath id="clip0_1_78">
<rect width="250" height="90" fill="white"/>
</clipPath>
</defs>
</svg>
